<?xml version="1.0" encoding="UTF-8"?><svg id="a" xmlns="http://www.w3.org/2000/svg" viewBox="0 0 16 16"><rect width="16" height="16" fill="#020617" stroke-width="0"/><path d="m13.75,4.39l-5.5-3.18c-.15-.09-.34-.09-.5,0l-5.5,3.18h0c-.15.09-.25.25-.25.43v6.36c0,.18.1.34.25.43l5.5,3.18c.08.04.16.07.25.07s.17-.02.25-.07l5.5-3.18c.15-.09.25-.25.25-.43v-6.36c0-.18-.1-.34-.25-.43Zm-.15,6.78s-.02.06-.05.08l-5.5,3.18s-.06.02-.09,0l-5.5-3.18s-.05-.05-.05-.08v-6.36s.02-.06.05-.08L7.95,1.56s.06-.02.09,0l5.5,3.18s.05.05.05.08v6.36Z" fill="#f8fafc" stroke-width="0"/><path d="m6.57,6.29c-.11-.06-.24-.06-.36,0l-1.14.66c-.11.06-.18.18-.18.31v1.32c0,.13.07.24.18.31.06.03.12.05.18.05s.12-.02.18-.05l1.14-.66c.11-.06.18-.18.18-.31v-1.32c0-.13-.07-.24-.18-.31Zm-.22,1.6l-1.05.6v-1.21l1.05-.6v1.21Z" fill="#f8fafc" stroke-width="0"/><path d="m9.62,9.75c.06,0,.12-.02.18-.05l1.14-.66c.11-.06.18-.18.18-.31v-1.32c0-.13-.07-.24-.18-.31-.11-.06-.24-.06-.36,0l-1.14.66c-.11.06-.18.18-.18.31v1.32c0,.13.07.24.18.31.06.03.12.05.18.05Zm.05-1.65l1.05-.6v1.21l-1.05.6v-1.21Z" fill="#f8fafc" stroke-width="0"/><path d="m12.37,6.11l-1.29-.75c-.11-.06-.25-.06-.36,0l-1.05.61v-1.23c0-.13-.07-.25-.18-.31l-1.16-.66c-.11-.06-.24-.06-.35,0s-.18.18-.18.31v6.08l-1.07-.62c-.11-.06-.25-.06-.36,0l-1.27.73-1.25-.72v-3.12l2.8-1.62c.1-.06.13-.18.07-.28-.06-.1-.18-.13-.28-.07l-2.82,1.63c-.11.06-.18.18-.18.31v3.17c0,.13.07.24.18.31l1.3.75c.11.06.25.06.36,0l1.27-.73,1.12.65c.11.06.24.06.36,0,.11-.06.18-.18.18-.31v-6.08l1.07.61v1.29c0,.13.07.24.18.31.11.06.25.06.36,0l1.1-.64,1.25.72v3.12l-4.15,2.39-1.34-.77c-.1-.06-.22-.02-.28.07s-.02.22.07.28l1.36.79c.05.03.12.05.18.05s.12-.02.18-.05l4.19-2.42c.11-.06.18-.18.18-.31v-3.17c0-.13-.07-.24-.18-.31Z" fill="#f8fafc" stroke-width="0"/></svg>