<svg id="Layer_1" data-name="Layer 1" xmlns="http://www.w3.org/2000/svg" viewBox="0 0 298 340.29">
  <path d="m8.66,84.89c-2.27,1.31-3.66,3.73-3.66,6.34v157.82c0,2.62,1.4,5.04,3.66,6.34l32.34,18.67,36,20.78,36,20.78,32.34,18.67c2.27,1.31,5.06,1.31,7.33,0l32.34-18.67,36-20.78,36-20.78,32.34-18.67c2.27-1.31,3.66-3.73,3.66-6.34V91.23c0-2.62-1.4-5.04-3.66-6.34l-32.34-18.67-36-20.78-36-20.78-32.34-18.67c-2.27-1.31-5.06-1.31-7.33,0l-32.34,18.67-36,20.78-36,20.78-32.34,18.67Z" style="fill: none; stroke: #8d866e; stroke-linecap: round; stroke-linejoin: round; stroke-width: 10px;"/>
  <path d="m107.25,131.89l-28.34,16.36c-1.19.68-1.92,1.95-1.92,3.32v32.72c0,2.95,3.19,4.79,5.75,3.32l28.34-16.36c1.19-.68,1.92-1.95,1.92-3.32v-32.72c0-2.95-3.19-4.79-5.75-3.32Z" style="fill: none; stroke: #8d866e; stroke-linecap: round; stroke-linejoin: round; stroke-width: 10px;"/>
  <path d="m221.5,155.56v32.72c0,1.37-.73,2.63-1.92,3.32l-28.34,16.36c-2.55,1.47-5.75-.37-5.75-3.32v-32.72c0-1.37.73-2.63,1.92-3.32l28.34-16.36c2.55-1.47,5.75.37,5.75,3.32Z" style="fill: none; stroke: #8d866e; stroke-linecap: round; stroke-linejoin: round; stroke-width: 10px;"/>
  <path d="m113.25,253.43l33.83,19.53c1.19.68,2.65.68,3.83,0l104.17-60.14c1.19-.68,1.92-1.95,1.92-3.32v-78.72c0-1.37-.73-2.63-1.92-3.32l-32.16-18.57c-1.19-.69-2.66-.68-3.85.01l-27.81,16.28c-2.55,1.5-5.77-.35-5.77-3.31v-32.66c0-1.38-.74-2.65-1.93-3.33l-28.84-16.42c-2.55-1.45-5.73.39-5.73,3.33v153.05c0,2.95-3.19,4.79-5.75,3.32l-28.34-16.36c-1.19-.68-2.65-.68-3.83,0l-32.17,18.57c-1.19.68-2.65.68-3.83,0l-32.17-18.57c-1.19-.68-1.92-1.95-1.92-3.32v-78.72c0-1.37.73-2.63,1.92-3.32l34.08-19.68,36-20.78" style="fill: none; stroke: #8d866e; stroke-linecap: round; stroke-linejoin: round; stroke-width: 10px;"/>
</svg>